<?xml version="1.0" encoding="UTF-8" standalone="no"?>
<svg
   xmlns:dc="http://purl.org/dc/elements/1.1/"
   xmlns:cc="http://creativecommons.org/ns#"
   xmlns:rdf="http://www.w3.org/1999/02/22-rdf-syntax-ns#"
   xmlns:svg="http://www.w3.org/2000/svg"
   xmlns="http://www.w3.org/2000/svg"
   xmlns:sodipodi="http://sodipodi.sourceforge.net/DTD/sodipodi-0.dtd"
   xmlns:inkscape="http://www.inkscape.org/namespaces/inkscape"
   data-name="Layer 1"
   viewBox="0 0 38 29.999999"
   x="0px"
   y="0px"
   version="1.1"
   id="svg20"
   sodipodi:docname="icone.svg"
   width="38"
   height="30"
   inkscape:version="0.92.2 (5c3e80d, 2017-08-06)">
  <title
     id="title821">Logo Titre</title>
  <metadata
     id="metadata26">
    <rdf:RDF>
      <cc:Work
         rdf:about="">
        <dc:format>image/svg+xml</dc:format>
        <dc:type
           rdf:resource="http://purl.org/dc/dcmitype/StillImage" />
        <dc:title>Logo Titre</dc:title>
        <dc:date>2018</dc:date>
        <dc:creator>
          <cc:Agent>
            <dc:title>Guillaume Fayard</dc:title>
          </cc:Agent>
        </dc:creator>
        <dc:rights>
          <cc:Agent>
            <dc:title />
          </cc:Agent>
        </dc:rights>
        <dc:source>Logo : Noun Project</dc:source>
      </cc:Work>
    </rdf:RDF>
  </metadata>
  <defs
     id="defs24" />
  <sodipodi:namedview
     pagecolor="#ffffff"
     bordercolor="#666666"
     borderopacity="1"
     objecttolerance="10"
     gridtolerance="10"
     guidetolerance="10"
     inkscape:pageopacity="0"
     inkscape:pageshadow="2"
     inkscape:window-width="1920"
     inkscape:window-height="961"
     id="namedview22"
     showgrid="false"
     inkscape:zoom="10.519571"
     inkscape:cx="-3.2022938"
     inkscape:cy="1.4902755"
     inkscape:window-x="-9"
     inkscape:window-y="43"
     inkscape:window-maximized="1"
     inkscape:current-layer="svg20" />
  <path
     d="m 17.839437,8.2074369 c -0.78724,0.6101134 -2.914023,1.1444611 -2.914023,1.1444611 -1.104607,8.075042 6.45866,9.905382 8.033136,9.905382 1.574479,0 7.245897,0 8.428815,-5.183974 1.100487,-4.833063 -1.685761,-6.9425437 -1.970159,-8.3063277 -0.313246,-1.5232909 -1.26123,-1.4475255 -1.26123,-1.4475255 -2.835709,0.079746 -3.775449,2.9748043 -3.775449,2.9748043 0.473991,0.9131798 0.156631,2.8192869 -0.630615,3.1901409 -0.787238,0.370854 -1.809414,-0.988943 -1.809414,-0.988943 0.313246,0.303064 1.417856,0.398768 1.417856,0.398768 C 23.671599,9.495455 23.910655,8.3709292 23.77052,8.0638786 23.630388,7.7568268 23.358354,6.3890563 22.904968,6.0700435 22.451586,5.7510284 21.173866,6.3731052 21.173866,6.3731052 18.939922,6.7599099 18.610189,7.5973222 17.839437,8.2074369 Z"
     id="path4"
     inkscape:connector-curvature="0"
     style="stroke-width:0.40541187;fill:#4d4d4d" />
  <path
     d="m 10.197862,3.1789772 c 1.022172,-0.6858803 1.970157,-1.2959943 1.970157,-1.2959943 l 1.18292,-0.4745324 A 3.6476778,3.529092 0 0 0 9.2539994,0.4952721 C 8.7800066,0.6468041 7.4445857,2.7802096 7.1272175,3.5418566 6.8098483,4.3035022 6.3399788,6.2096105 6.3399788,6.2096105 L 7.0695139,5.695201 C 8.6233836,4.8577873 9.1756867,3.8648577 10.197862,3.1789772 Z"
     id="path6"
     inkscape:connector-curvature="0"
     style="stroke-width:0.40541187;fill:#000000" />
  <path
     d="M 37.367908,11.864133 C 36.658981,8.8175503 35.793432,7.1387402 34.218953,7.4457885 A 10.221742,9.8894339 0 0 0 31.618179,8.2832008 C 35.554374,20.856341 23.111053,20.018929 23.111053,20.018929 13.186071,19.25728 13.895,9.810481 13.895,9.810481 12.712079,9.962013 11.533283,10.572127 9.4065007,10.647893 7.2797185,10.723643 6.6573468,9.427665 6.6573468,9.427665 c 0.3132469,4.039514 3.3880122,16.915716 17.1667522,16.915716 13.778743,0 14.252735,-11.428678 13.543809,-14.479248 z"
     id="path8"
     inkscape:connector-curvature="0"
     style="stroke-width:0.40541187" />
  <path
     d="m 5.709363,7.4457885 c 0,0 -1.5744777,-1.2202281 -2.7615186,-0.9131752 -1.1870409,0.3070495 -1.100486,2.284937 -1.4178544,3.2778677 -0.3173686,0.992932 -1.25298761,1.447525 -1.01805251,3.656698 0.234935,2.209171 4.94600391,7.999275 10.47316351,8.772883 0,-0.01211 -5.6672966,-7.325359 -5.275738,-14.7942735 z"
     id="path10"
     inkscape:connector-curvature="0"
     style="stroke-width:0.40541187;fill:#4d4d4d" />
  <path
     d="m 12.95526,24.058443 c 0,0 0.156616,2.743519 4.645121,4.342578 a 7.7981992,7.5446803 0 0 0 7.719886,-1.295997 C 18.548365,28.093969 12.95526,24.058443 12.95526,24.058443 Z"
     id="path12"
     inkscape:connector-curvature="0"
     style="stroke-width:0.40541187;fill:#4d4d4d" />
  <path
     d="m 7.4445857,6.456847 c -1.6486678,0.9889415 0.078312,3.277868 1.5744781,3.353634 1.4961672,0.07575 4.7234352,-1.0686982 6.3803442,-1.3717597 1.65691,-0.3030641 3.544636,-2.2091732 3.544636,-2.2091732 l 1.182917,-0.398768 -0.02886,-0.2871106 A 2.4070552,2.3288021 0 0 0 19.685942,4.4510453 C 19.203706,3.7611789 18.276329,2.6127288 17.212942,2.2498497 15.638463,1.7155006 14.220606,1.5639701 12.407071,2.6486172 10.593538,3.7332638 9.0973723,5.4639142 7.4445824,6.456847 Z M 13.392154,4.7820223 A 0.75014392,0.72575679 0 1 1 12.642011,5.5077796 0.75014392,0.72575679 0 0 1 13.388033,4.778035 Z"
     id="path14"
     inkscape:connector-curvature="0"
     style="stroke-width:0.40541187" />
</svg>
